<svg xmlns="http://www.w3.org/2000/svg" viewBox="0 0 181.72 161.68"><defs><style>.a{fill:#ffc53e;}.b{fill:#f53645;}.c{fill:#c1b8b0;}.d{fill:#00bbb3;}</style></defs><title>logo-four-square</title><path class="a" d="M610-61h-23.4v32.51h23.47a17.23,17.23,0,0,0,14.29-6.78,14.38,14.38,0,0,0,3.28-9.11,15.73,15.73,0,0,0-5-11.92A17.69,17.69,0,0,0,610-61Z" transform="translate(-465.53 170.24)"/><path class="a" d="M565.06-80.6v72h82.2v-72h-82.2ZM631.73-25q-8.46,6.71-20.78,6.71H573.78V-71.09h35.43q14.65,0,23.29,7.4t8.64,19.57A23.28,23.28,0,0,1,631.73-25Z" transform="translate(-465.53 170.24)"/><path class="b" d="M465.53-98.2h82.2v-72h-82.2v72Zm15-55.79q10.39-8.59,26.42-8.59,20.86,0,33.35,15.45L528.75-143a31.29,31.29,0,0,0-22.82-9.53q-9.68,0-15.74,4.93A15.55,15.55,0,0,0,484.14-135a15.52,15.52,0,0,0,6.25,12.76q6.25,4.93,16.57,4.93a28.71,28.71,0,0,0,21.95-9.82l10.76,5.78a40.81,40.81,0,0,1-14.19,10.72,44.56,44.56,0,0,1-17.94,3.36A45.85,45.85,0,0,1,483-114a23.66,23.66,0,0,1-8.38-8.84A24.66,24.66,0,0,1,471.5-135,23.52,23.52,0,0,1,480.53-154Z" transform="translate(-465.53 170.24)"/><path class="c" d="M647.13-170.24H565.19v72h81.94v-72Zm-41,19.35,11.65,21.8H594.54Zm-23,43,6-11.38h33.89l6,11.38h-46Z" transform="translate(-465.53 170.24)"/><path class="d" d="M465.66-8.56H547.6v-72H465.66v72Zm40.8-52.56,11.65,21.8H494.86ZM489.54-29.47h33.89l6,11.38h-46Z" transform="translate(-465.53 170.24)"/></svg>